<svg xmlns="http://www.w3.org/2000/svg" version="1.1" viewBox="0 0 20 20" class="svg-icon svg-fill" style="width:24px;height:24px;"><path fill="#81868f" stroke="none" pid="0" fill-rule="evenodd" clip-rule="evenodd" d="M17 16v-4a1 1 0 0 0-1-1h-4a1 1 0 0 0-1 1v4a1 1 0 0 0 1 1h4a1 1 0 0 0 1-1zm-8 0v-4a1 1 0 0 0-1-1H4a1 1 0 0 0-1 1v4a1 1 0 0 0 1 1h4a1 1 0 0 0 1-1zm8-8V4a1 1 0 0 0-1-1h-4a1 1 0 0 0-1 1v4a1 1 0 0 0 1 1h4a1 1 0 0 0 1-1zM8 9H4a1 1 0 0 1-1-1V4a1 1 0 0 1 1-1h4a1 1 0 0 1 1 1v4a1 1 0 0 1-1 1z" _fill="#000"/></svg>